<?xml version="1.0" encoding="UTF-8" standalone="no"?>
<svg xmlns:rdf="http://www.w3.org/1999/02/22-rdf-syntax-ns#" xmlns="http://www.w3.org/2000/svg" version="1.0" xml:space="preserve" height="62.537" width="76.144" enable-background="new 0 0 462.325 73.735" y="0px" x="0px" xmlns:cc="http://creativecommons.org/ns#" xmlns:dc="http://purl.org/dc/elements/1.1/" viewBox="0 0 76.145 62.537"><g transform="translate(-378.99 -6.8285)"><path d="m441.66 23.879s-14.531-14.296-21.64 15.525c-0.581 2.436-2.344-2.887-16.46 2.271l-1.8374-0.87656c-6.24-1.629-9.56-0.751-12.55 3.592-3.601 5.236-0.271 9.772-0.271 9.772s-4.987-2.272-7.973 1.8-1.629 11.944-1.629 11.944l74.923-0.271 0.814-60.807-1.086 0.271s-3.964 3.303-7.058 4.715c-7.081 3.232-5.942 10.055-5.942 10.055z" fill="#f6f6f6"/><path d="m454.05 8.558s-2.79 4.28-3.528 7.601c-1.086 4.887 1.086 10.858 1.086 10.858s-3.215-5.23-5.701-1.086c-0.814 1.357 2.172 11.673 2.172 11.673s-5.973 8.687-11.13 2.986 6.244-4.343 4.615-9.772-6.787-5.158-6.787-5.158-6.786-1.628-14.658 15.202c-1.061 2.268-6.729-0.854-12.759 3.529-2.986 2.171-1.086 8.144-1.086 8.144-1.357 5.7-7.329 4.071-7.329 4.071s6.243-12.758-0.271-14.115c-4.383-0.913-5.43-1.086-8.416 3.257-3.601 5.236 0.271 8.959 0.271 8.959s-6.516-1.358-9.501 2.714-1.629 11.944-1.629 11.944l75.735 0.000057v-61.078z" fill="#fff"/></g></svg>
