<?xml version="1.0" encoding="UTF-8" standalone="no"?>
<svg xmlns:rdf="http://www.w3.org/1999/02/22-rdf-syntax-ns#" xmlns="http://www.w3.org/2000/svg" enable-background="new 0 0 462.325 73.735" xml:space="preserve" height="54.688" width="244.48" version="1.0" y="0px" x="0px" xmlns:cc="http://creativecommons.org/ns#" xmlns:dc="http://purl.org/dc/elements/1.1/" viewBox="0 0 244.48199 54.687393"><g transform="translate(-99.516 -17.974)"><path fill="#e9e9e9" d="m191.63 39.1c3.911-1.647 17.112-2.515 22.052 5.513l5.301-2.969s11.449-8.693 18.446 1.272c1.349 1.921 5.427-1.672 9.542-0.849 1.8322 0.5451 3.0426 1.0216 5.513 6.785 1.456 2.911 4.234-2.128 7.116-6.45 4.8405-5.6748 15.825-8.8013 20.173-7.205 5.558 2.264 6.793 6.588 7.411 8.44 0 0 11.325-10.703 18.525-8.646 7.617 2.177 11.733 10.909 12.969 12.968 2.7428 4.0094 3.5994 5.0825 5.558 7.205 4.3462 4.7584 9.2183 0.39503 10.292-0.618 6.857-6.65 9.47 7.41 9.47 8.028 0 11.732-10.498 8.439-10.498 8.439h-2.882l-231.09-0.5s-0.63174-18.077 11.322-17.909c2.5751 0.0363 3.2812 0.46006 3.2812 0.46006s6.9378-17.665 23.479-19.809c21.539-2.793 32.449 16.146 32.449 16.146s5.764-2.882 9.263-1.441c2.8536-3.7383 7.7438-6.8467 12.311-8.86z"/><path fill="#fff" d="m99.522 72.662s-0.49372-17.649 11.452-18.115c2.7927-0.10888 3.499 0.2423 3.499 0.2423s6.587-20.004 23.261-19.591 24.702 23.879 24.702 23.879 6.177-8.028 13.998-6.588c6.685 1.231 8.234 8.852 8.234 8.852s2.696-9.13-4.323-12.145c-1.439-0.618 6.4179-7.9178 13.792-7.616 5.1578 0.19324 11.321 3.5 12.762 11.733l3.295-4.323s9.217-11.004 24.7 1.029c1.854 1.44 2.885-5.352 7-4.528 3.754 0.751 5.145 10.703 4.115 13.791s3.504-9.057 8.443-7.204c2.78 1.043 2.673 3.705 2.673 3.705s3.952-11.992 10.708-15.026c10.086-4.529 17.493-0.824 18.934 4.116 0 0 8.859-10.291 16.06-8.233 7.617 2.177 8.441 9.675 7.818 15.026-0.253 2.175-2.265 3.5-2.265 3.5s4.751-3.171 7.826 1.44c1.235 1.853-0.411 5.97-0.411 5.97s-0.823 6.176 5.97-0.412c6.857-6.65 5.9 3.091 5.964 3.706 0.211 2.058 2.476-0.206 2.476-0.206s2.207-5.029 5.347-6.793c3.299-1.853 7.622 3.705 4.534 13.791h-240.57z"/></g></svg>
