<?xml version="1.0" encoding="UTF-8" standalone="no"?>
<svg xmlns:rdf="http://www.w3.org/1999/02/22-rdf-syntax-ns#" xmlns="http://www.w3.org/2000/svg" xml:space="preserve" height="42.424" width="86.537" version="1.0" y="0px" x="0px" xmlns:cc="http://creativecommons.org/ns#" xmlns:dc="http://purl.org/dc/elements/1.1/" viewBox="0 0 86.536991 42.423504"><g transform="translate(-.000012273 -29.929)"><path fill="#c5c6e4" d="m86.382 66.776s-3.718-23.858-19.31-21.085c-10.166 1.809-13.58 14.148-13.58 14.148s-4.248-5.517-7.643-4.95-7.747 6.352-7.747 6.352 0.408-33.66-27.168-31.181c-15.31 1.377-10.068 38.833-10.068 38.833l85.361-0.103 0.155-2.014z"/><path fill="#f6f6f4" d="m86.382 66.002s-8.871-14.769-19.057-13.07-13.58 14.147-13.58 14.147-4.248-5.517-7.643-4.95-7.747 6.352-7.747 6.352-10.688-28.352-27.05-26.867c-15.31 1.39-9.821 30.739-9.821 30.739h85.053l-0.155-6.351z"/></g></svg>
