<?xml version="1.0" encoding="UTF-8" standalone="no"?>
<svg
   xmlns:dc="http://purl.org/dc/elements/1.1/"
   xmlns:cc="http://creativecommons.org/ns#"
   xmlns:rdf="http://www.w3.org/1999/02/22-rdf-syntax-ns#"
   xmlns:svg="http://www.w3.org/2000/svg"
   xmlns="http://www.w3.org/2000/svg"
   xmlns:xlink="http://www.w3.org/1999/xlink"
   id="svg2"
   viewBox="0 0 453.66 377.74"
   version="1.0">
  <defs
     id="defs4">
    <linearGradient
       id="linearGradient4391">
      <stop
         id="stop7"
         offset="0"
         stop-color="#b02d30" />
      <stop
         id="stop9"
         offset="1"
         stop-color="#883739" />
    </linearGradient>
    <linearGradient
       id="linearGradient3184">
      <stop
         id="stop12"
         offset="0"
         stop-color="#c2d597" />
      <stop
         id="stop14"
         offset="1"
         stop-color="#b2ca7b" />
    </linearGradient>
    <clipPath
       clipPathUnits="userSpaceOnUse"
       id="clipPath3671">
      <path
         id="path17"
         fill="url(#radialGradient3675)"
         fill-rule="evenodd"
         d="m748.38 337.76c33.959 3.6662 103.24-40.5 67.5-128.65-35.735-88.147-146.41-69.02-162-18.265-2.9502 9.6019 45.515 19.719 65.912 58.765s12.02 86.358 28.588 88.147z" />
    </clipPath>
    <radialGradient
       r="86.048"
       gradientTransform="matrix(1.5452 -.36517 .38273 1.6196 -96.171 42.49)"
       cx="495.01"
       cy="225.08"
       gradientUnits="userSpaceOnUse"
       xlink:href="#linearGradient3184"
       id="radialGradient3675" />
    <clipPath
       clipPathUnits="userSpaceOnUse"
       id="clipPath3903">
      <path
         id="path21"
         fill="url(#linearGradient3907)"
         fill-rule="evenodd"
         d="m214.32 159.35c19.296-6.7431 57.285-29.585 42.676-41.834-21.907 7.5012-56.523-55.106-120.73-13.757-36.871 23.745 12.213 90.265-0.14038 107.67 17.152-28.608 27.964-34.578 78.192-52.082z" />
    </clipPath>
    <linearGradient
       x1="331.27"
       y1="144.12"
       gradientTransform="translate(-140)"
       x2="345.47"
       gradientUnits="userSpaceOnUse"
       xlink:href="#linearGradient3184"
       y2="164.77"
       id="linearGradient3907" />
    <clipPath
       clipPathUnits="userSpaceOnUse"
       id="clipPath4038">
      <path
         id="path25"
         fill="url(#radialGradient4042)"
         fill-rule="evenodd"
         d="m265.82 354.97c-7.8299 9.3328-25.563 13.474-26.542 33.395-0.99345 20.213 17.934 56.514 45.548 63.567 27.525 7.0304 30.475-0.87881 44.565-0.29294 13.763 0.57227 14.746-48.92-9.8305-72.062-24.413-22.988-42.271-26.657-53.74-24.607z" />
    </clipPath>
    <radialGradient
       r="60.956"
       gradientTransform="matrix(1.8139 .94173 -.69006 1.0622 53.682 -240.25)"
       cx="266.66"
       cy="363.02"
       gradientUnits="userSpaceOnUse"
       id="radialGradient4042">
      <stop
         id="stop28"
         offset="0"
         stop-color="#bed092" />
      <stop
         id="stop30"
         offset=".37492"
         stop-color="#b3d57e" />
      <stop
         id="stop32"
         offset="1"
         stop-color="#65893c" />
    </radialGradient>
    <linearGradient
       id="linearGradient9592">
      <stop
         id="stop35"
         offset="0"
         stop-color="#cd5200" />
      <stop
         id="stop37"
         offset="1"
         stop-color="#caca00" />
    </linearGradient>
    <linearGradient
       id="linearGradient7800">
      <stop
         id="stop40"
         offset="0"
         stop-color="#f60" />
      <stop
         id="stop42"
         offset="1"
         stop-color="#ff0" />
    </linearGradient>
    <linearGradient
       id="linearGradient12263">
      <stop
         id="stop45"
         offset="0"
         stop-color="#ff8915" />
      <stop
         id="stop47"
         offset="1"
         stop-color="#ff0" />
    </linearGradient>
    <linearGradient
       id="linearGradient5073">
      <stop
         id="stop50"
         offset="0"
         stop-color="#fff" />
      <stop
         id="stop52"
         offset="1"
         stop-opacity="0"
         stop-color="#fff" />
    </linearGradient>
    <linearGradient
       id="linearGradient2231">
      <stop
         id="stop55"
         offset="0"
         stop-opacity=".30275" />
      <stop
         id="stop57"
         offset="1"
         stop-opacity="0" />
    </linearGradient>
    <linearGradient
       id="linearGradient13387">
      <stop
         id="stop60"
         offset="0" />
      <stop
         id="stop62"
         offset="1"
         stop-opacity="0" />
    </linearGradient>
    <radialGradient
       r="51.854"
       gradientTransform="matrix(1.1892 -.28425 .36680 1.5345 -226.27 63.88)"
       cx="714.74"
       cy="248.28"
       gradientUnits="userSpaceOnUse"
       xlink:href="#linearGradient4391"
       id="radialGradient3975" />
    <radialGradient
       r="43.976"
       gradientTransform="matrix(1.5327 .12641 -.082061 .99501 -68.838 -18.613)"
       cx="153.62"
       cy="158.38"
       gradientUnits="userSpaceOnUse"
       xlink:href="#linearGradient4391"
       id="radialGradient3977" />
    <radialGradient
       r="58.841"
       gradientTransform="matrix(1 0 0 .36052 0 328.02)"
       cx="179.05"
       cy="512.94"
       gradientUnits="userSpaceOnUse"
       xlink:href="#linearGradient13387"
       id="radialGradient4036" />
    <linearGradient
       x1="146.43"
       y1="578.08"
       x2="5.9453"
       gradientUnits="userSpaceOnUse"
       xlink:href="#linearGradient9592"
       y2="577.43"
       id="linearGradient4038" />
    <linearGradient
       x1="144.64"
       y1="578.43"
       x2="5.9286"
       gradientUnits="userSpaceOnUse"
       xlink:href="#linearGradient7800"
       y2="579.86"
       id="linearGradient4040" />
    <linearGradient
       x1="140.23"
       y1="605.49"
       x2=".96580"
       gradientUnits="userSpaceOnUse"
       xlink:href="#linearGradient12263"
       y2="551.65"
       id="linearGradient4042" />
    <linearGradient
       x1="115.37"
       y1="627.11"
       x2="-83.018"
       gradientUnits="userSpaceOnUse"
       y2="550.67"
       id="linearGradient4044">
      <stop
         id="stop71"
         offset="0" />
      <stop
         id="stop73"
         offset="1"
         stop-opacity="0" />
    </linearGradient>
    <linearGradient
       x1="69.839"
       y1="522.38"
       gradientTransform="matrix(.51396 0 0 .51396 169.54 181.2)"
       x2="81.112"
       gradientUnits="userSpaceOnUse"
       xlink:href="#linearGradient5073"
       y2="575.41"
       id="linearGradient4046" />
    <linearGradient
       x1="162.64"
       y1="585.55"
       gradientTransform="matrix(.51396 0 0 .51396 169.54 181.2)"
       x2="60.352"
       gradientUnits="userSpaceOnUse"
       xlink:href="#linearGradient2231"
       y2="555.11"
       id="linearGradient4048" />
    <linearGradient
       x1="248.39"
       y1="501.65"
       x2="141.07"
       gradientUnits="userSpaceOnUse"
       xlink:href="#linearGradient13387"
       y2="468.79"
       id="linearGradient4050" />
    <linearGradient
       x1="69.839"
       y1="522.38"
       x2="81.112"
       gradientUnits="userSpaceOnUse"
       xlink:href="#linearGradient5073"
       y2="575.41"
       id="linearGradient4058" />
    <linearGradient
       x1="162.64"
       y1="585.55"
       x2="60.352"
       gradientUnits="userSpaceOnUse"
       xlink:href="#linearGradient2231"
       y2="555.11"
       id="linearGradient4060" />
    <linearGradient
       x1="146.43"
       y1="578.08"
       x2="5.9453"
       gradientUnits="userSpaceOnUse"
       y2="577.43"
       id="linearGradient4064-1">
      <stop
         id="stop81"
         offset="0"
         stop-color="#cd5200" />
      <stop
         id="stop83"
         offset="1"
         stop-color="#caca00" />
    </linearGradient>
    <linearGradient
       x1="144.64"
       y1="578.43"
       x2="5.9286"
       gradientUnits="userSpaceOnUse"
       y2="579.86"
       id="linearGradient4066-6">
      <stop
         id="stop86"
         offset="0"
         stop-color="#f60" />
      <stop
         id="stop88"
         offset="1"
         stop-color="#ff0" />
    </linearGradient>
    <linearGradient
       x1="140.23"
       y1="605.49"
       x2=".96580"
       gradientUnits="userSpaceOnUse"
       y2="551.65"
       id="linearGradient4068-8">
      <stop
         id="stop91"
         offset="0"
         stop-color="#ff8915" />
      <stop
         id="stop93"
         offset="1"
         stop-color="#ff0" />
    </linearGradient>
    <linearGradient
       x1="69.839"
       y1="522.38"
       x2="81.112"
       gradientUnits="userSpaceOnUse"
       y2="575.41"
       id="linearGradient4070-6">
      <stop
         id="stop96"
         offset="0"
         stop-color="#fff" />
      <stop
         id="stop98"
         offset="1"
         stop-opacity="0"
         stop-color="#fff" />
    </linearGradient>
    <linearGradient
       x1="162.64"
       x2="60.352"
       y1="585.55"
       gradientUnits="userSpaceOnUse"
       y2="555.11"
       id="linearGradient4130">
      <stop
         id="stop101"
         offset="0"
         stop-opacity=".30275" />
      <stop
         id="stop103"
         offset="1"
         stop-opacity="0" />
    </linearGradient>
    <linearGradient
       x1="69.839"
       y1="522.38"
       gradientTransform="matrix(.51396 0 0 .51396 169.54 181.2)"
       x2="81.112"
       gradientUnits="userSpaceOnUse"
       y2="575.41"
       id="linearGradient4046-5">
      <stop
         id="stop106"
         offset="0"
         stop-color="#fff" />
      <stop
         id="stop108"
         offset="1"
         stop-opacity="0"
         stop-color="#fff" />
    </linearGradient>
    <linearGradient
       x1="162.64"
       y1="585.55"
       gradientTransform="matrix(.51396 0 0 .51396 169.54 181.2)"
       x2="60.352"
       gradientUnits="userSpaceOnUse"
       y2="555.11"
       id="linearGradient4048-6">
      <stop
         id="stop111"
         offset="0"
         stop-opacity=".30275" />
      <stop
         id="stop113"
         offset="1"
         stop-opacity="0" />
    </linearGradient>
    <radialGradient
       r="25.975"
       gradientTransform="matrix(.71055 0 0 1.1438 155.36 -56.969)"
       cx="251.79"
       cy="372.9"
       gradientUnits="userSpaceOnUse"
       xlink:href="#linearGradient4391"
       id="radialGradient4823" />
  </defs>
  <g
     id="g116"
     transform="translate(-227.97 -175.88)">
    <g
       id="g118"
       transform="translate(-580,154)">
      <ellipse
         id="ellipse120"
         fill="url(#radialGradient4036)"
         cx="179.05"
         ry="21.213"
         transform="matrix(1.1375 0 0 1.3779 673.76 -371.44)"
         cy="512.94"
         rx="58.841" />
      <g
         id="g122"
         transform="matrix(1.6774 0 0 1.6774 490.25 -475.94)">
        <g
           id="g124"
           stroke="#000">
          <ellipse
             id="ellipse126"
             fill="url(#linearGradient4038)"
             cx="76.071"
             cy="579.86"
             ry="32.5"
             transform="matrix(.51408 0 0 .48033 189.85 199.16)"
             rx="69.643" />
          <ellipse
             id="ellipse128"
             fill="url(#linearGradient4040)"
             cx="76.071"
             cy="579.86"
             ry="32.5"
             transform="matrix(.51396 0 0 .51396 189.55 175.51)"
             rx="69.643" />
          <path
             id="path130"
             fill="none"
             stroke-width=".51396px"
             d="m192.85 473.53 0.31335 4.6742 0.23732 1.5668-0.0649-3.3893" />
          <path
             id="path132"
             fill="none"
             stroke-width=".51396px"
             d="m264.42 472.86 0.25959 4.7375-0.25959 2.0767-0.19469-4.0885h-0.0649" />
        </g>
        <path
           id="path134"
           fill-rule="evenodd"
           fill-opacity=".46781"
           d="m197.44 481.69 0.0398 3.5044c3.58 3.7783 15.793 6.6179 21.336 7.7552l0.0398-3.4395c-5.9202-0.028-17.543-3.6457-21.217-7.5605" />
        <path
           id="path136"
           fill-rule="evenodd"
           fill-opacity=".46781"
           d="m241.36 489.2 0.0398 3.115c2.9818-0.30672 14.828-1.562 21.758-10.027l0.0398-4.6077c-4.4138 6.2155-15.281 10.888-21.055 11" />
        <ellipse
           id="ellipse138"
           fill="url(#linearGradient4042)"
           cx="76.071"
           cy="579.86"
           ry="32.5"
           stroke="url(#linearGradient4044)"
           transform="matrix(.47076 0 0 .45088 192.83 211.93)"
           rx="69.643" />
        <path
           id="path140"
           d="m244.3 477.54c4.9322-4.9322 8.3068-7.7876 3.6342-12.201-4.6726-4.413-15.056-6.4897-25.18-5.7109-10.124 0.77877-18.95 3.8938-22.065 8.5664-3.1151 4.6726-2.3363 8.3068 0.51917 10.384 2.8555 2.0767 6.7493 2.3363 6.7493 2.3363"
           fill="url(#linearGradient4046)"
           fill-rule="evenodd" />
        <path
           id="path142"
           fill="url(#linearGradient4048)"
           stroke-width=".51396px"
           stroke="url(#linearGradient4050)"
           fill-rule="evenodd"
           d="m199.91 477.41c2.4116 2.0732 5.1618 4.1087 10.643 5.8407l46.207-12.72c-1.5257-3.2391-4.8361-5.5859-10.513-6.7493l-16.354-1.4277-15.835 3.2448 17.912 2.3363-32.059 9.475" />
      </g>
    </g>
    <g
       id="g144"
       transform="matrix(.86211 0 0 .86211 202.37 -47.711)">
      <g
         id="g146"
         stroke="#000">
        <ellipse
           id="ellipse148"
           fill="url(#linearGradient4038)"
           cx="76.071"
           cy="579.86"
           ry="32.5"
           transform="matrix(1.0002 0 0 .93458 39.52 34.954)"
           rx="69.643" />
        <ellipse
           id="ellipse150"
           fill="url(#linearGradient4040)"
           cx="76.071"
           cy="579.86"
           ry="32.5"
           transform="translate(38.929 -11.071)"
           rx="69.643" />
        <path
           id="path152"
           fill="none"
           stroke-width="1px"
           d="m45.357 568.79 0.60968 9.0945 0.46175 3.0484-0.12627-6.5944" />
        <path
           id="path154"
           fill="none"
           stroke-width="1px"
           d="m184.61 567.49 0.50507 9.2176-0.50507 4.0406-0.37881-7.955h-0.12627" />
      </g>
      <path
         id="path156"
         fill-opacity=".46781"
         fill-rule="evenodd"
         d="m54.296 584.66 0.07748 6.8185c6.9655 7.3513 30.728 12.876 41.514 15.089l0.07748-6.6923c-11.518-0.06-34.132-7.1-41.281-14.71" />
      <path
         id="path158"
         fill-opacity=".46781"
         fill-rule="evenodd"
         d="m139.75 599.28 0.0775 6.0609c5.8016-0.59678 28.85-3.0391 42.335-19.509l0.0775-8.9651c-8.588 12.093-29.733 21.185-40.966 21.403" />
      <ellipse
         id="ellipse160"
         fill="url(#linearGradient4042)"
         cx="76.071"
         cy="579.86"
         ry="32.5"
         stroke="#000"
         transform="matrix(.91596 0 0 .87727 45.323 59.805)"
         rx="69.643" />
      <path
         id="path162"
         fill="url(#linearGradient4058)"
         fill-rule="evenodd"
         d="m145.46 576.58c9.5964-9.5964 16.162-15.152 7.0711-23.739-9.0914-8.5863-29.294-12.627-48.992-11.112-19.698 1.5152-36.871 7.5761-42.931 16.668-6.0609 9.0914-4.5457 16.162 1.0102 20.203 5.5558 4.0406 13.132 4.5457 13.132 4.5457" />
      <path
         id="path164"
         fill="url(#linearGradient4060)"
         stroke-width="1px"
         stroke="#000"
         fill-rule="evenodd"
         d="m59.094 576.33c4.6922 4.0337 10.043 7.9942 20.708 11.364l89.904-24.749c-2.9686-6.3023-9.4094-10.868-20.456-13.132l-31.82-2.7779-30.81 6.3134 34.85 4.5457-62.377 18.435" />
    </g>
    <g
       id="g166"
       transform="translate(-490.72 189.07)">
      <ellipse
         id="ellipse168"
         fill="url(#radialGradient4036)"
         cx="179.05"
         ry="21.213"
         transform="matrix(1.1375 0 0 1.3779 673.76 -371.44)"
         cy="512.94"
         rx="58.841" />
      <g
         id="g170"
         transform="matrix(1.6774 0 0 1.6774 490.25 -475.94)">
        <g
           id="g172"
           stroke="#000">
          <ellipse
             id="ellipse174"
             fill="url(#linearGradient4064-1)"
             cx="76.071"
             cy="579.86"
             ry="32.5"
             transform="matrix(.51408 0 0 .48033 189.85 199.16)"
             rx="69.643" />
          <ellipse
             id="ellipse176"
             fill="url(#linearGradient4066-6)"
             cx="76.071"
             cy="579.86"
             ry="32.5"
             transform="matrix(.51396 0 0 .51396 189.55 175.51)"
             rx="69.643" />
          <path
             id="path178"
             fill="none"
             stroke-width=".51396px"
             d="m192.85 473.53 0.31335 4.6742 0.23732 1.5668-0.0649-3.3893" />
          <path
             id="path180"
             fill="none"
             stroke-width=".51396px"
             d="m264.42 472.86 0.25959 4.7375-0.25959 2.0767-0.19469-4.0885h-0.0649" />
        </g>
        <path
           id="path182"
           fill-rule="evenodd"
           fill-opacity=".46781"
           d="m197.44 481.69 0.0398 3.5044c3.58 3.7783 15.793 6.6179 21.336 7.7552l0.0398-3.4395c-5.9202-0.028-17.543-3.6457-21.217-7.5605" />
        <path
           id="path184"
           fill-rule="evenodd"
           fill-opacity=".46781"
           d="m241.36 489.2 0.0398 3.115c2.9818-0.30672 14.828-1.562 21.758-10.027l0.0398-4.6077c-4.4138 6.2155-15.281 10.888-21.055 11" />
        <ellipse
           id="ellipse186"
           fill="url(#linearGradient4068-8)"
           cx="76.071"
           cy="579.86"
           ry="32.5"
           stroke="url(#linearGradient4044)"
           transform="matrix(.47076 0 0 .45088 192.83 211.93)"
           rx="69.643" />
        <path
           id="path188"
           d="m244.3 477.54c4.9322-4.9322 8.3068-7.7876 3.6342-12.201-4.6726-4.413-15.056-6.4897-25.18-5.7109-10.124 0.77877-18.95 3.8938-22.065 8.5664-3.1151 4.6726-2.3363 8.3068 0.51917 10.384 2.8555 2.0767 6.7493 2.3363 6.7493 2.3363"
           fill="url(#linearGradient4046-5)"
           fill-rule="evenodd" />
        <path
           id="path190"
           fill="url(#linearGradient4048-6)"
           stroke-width=".51396px"
           stroke="url(#linearGradient4050)"
           fill-rule="evenodd"
           d="m199.91 477.41c2.4116 2.0732 5.1618 4.1087 10.643 5.8407l46.207-12.72c-1.5257-3.2391-4.8361-5.5859-10.513-6.7493l-16.354-1.4277-15.835 3.2448 17.912 2.3363-32.059 9.475" />
      </g>
    </g>
    <g
       id="g192"
       transform="matrix(.79146 0 0 .79146 263.18 51.521)">
      <g
         id="g194"
         stroke="#000">
        <ellipse
           id="ellipse196"
           fill="url(#linearGradient4038)"
           cx="76.071"
           cy="579.86"
           ry="32.5"
           transform="matrix(1.0002 0 0 .93458 39.52 34.954)"
           rx="69.643" />
        <ellipse
           id="ellipse198"
           fill="url(#linearGradient4040)"
           cx="76.071"
           cy="579.86"
           ry="32.5"
           transform="translate(38.929 -11.071)"
           rx="69.643" />
        <path
           id="path200"
           fill="none"
           stroke-width="1px"
           d="m45.357 568.79 0.60968 9.0945 0.46175 3.0484-0.12627-6.5944" />
        <path
           id="path202"
           fill="none"
           stroke-width="1px"
           d="m184.61 567.49 0.50507 9.2176-0.50507 4.0406-0.37881-7.955h-0.12627" />
      </g>
      <path
         id="path204"
         fill-opacity=".46781"
         fill-rule="evenodd"
         d="m54.296 584.66 0.07748 6.8185c6.9655 7.3513 30.728 12.876 41.514 15.089l0.07748-6.6923c-11.518-0.06-34.132-7.1-41.281-14.71" />
      <path
         id="path206"
         fill-opacity=".46781"
         fill-rule="evenodd"
         d="m139.75 599.28 0.0775 6.0609c5.8016-0.59678 28.85-3.0391 42.335-19.509l0.0775-8.9651c-8.588 12.093-29.733 21.185-40.966 21.403" />
      <ellipse
         id="ellipse208"
         fill="url(#linearGradient4042)"
         cx="76.071"
         cy="579.86"
         ry="32.5"
         stroke="#000"
         transform="matrix(.91596 0 0 .87727 45.323 59.805)"
         rx="69.643" />
      <path
         id="path210"
         fill="url(#linearGradient4058)"
         fill-rule="evenodd"
         d="m145.46 576.58c9.5964-9.5964 16.162-15.152 7.0711-23.739-9.0914-8.5863-29.294-12.627-48.992-11.112-19.698 1.5152-36.871 7.5761-42.931 16.668-6.0609 9.0914-4.5457 16.162 1.0102 20.203 5.5558 4.0406 13.132 4.5457 13.132 4.5457" />
      <path
         id="path212"
         fill="url(#linearGradient4060)"
         stroke-width="1px"
         stroke="#000"
         fill-rule="evenodd"
         d="m59.094 576.33c4.6922 4.0337 10.043 7.9942 20.708 11.364l89.904-24.749c-2.9686-6.3023-9.4094-10.868-20.456-13.132l-31.82-2.7779-30.81 6.3134 34.85 4.5457-62.377 18.435" />
    </g>
    <g
       id="g214"
       transform="matrix(.86211 0 0 .86211 221.3 -64.625)">
      <g
         id="g216"
         stroke="#000">
        <ellipse
           id="ellipse218"
           fill="url(#linearGradient4064-1)"
           cx="76.071"
           cy="579.86"
           ry="32.5"
           transform="matrix(1.0002 0 0 .93458 39.52 34.954)"
           rx="69.643" />
        <ellipse
           id="ellipse220"
           fill="url(#linearGradient4066-6)"
           cx="76.071"
           cy="579.86"
           ry="32.5"
           transform="translate(38.929 -11.071)"
           rx="69.643" />
        <path
           id="path222"
           fill="none"
           stroke-width="1px"
           d="m45.357 568.79 0.60968 9.0945 0.46175 3.0484-0.12627-6.5944" />
        <path
           id="path224"
           fill="none"
           stroke-width="1px"
           d="m184.61 567.49 0.50507 9.2176-0.50507 4.0406-0.37881-7.955h-0.12627" />
      </g>
      <path
         id="path226"
         fill-opacity=".46781"
         fill-rule="evenodd"
         d="m54.296 584.66 0.07748 6.8185c6.9655 7.3513 30.728 12.876 41.514 15.089l0.07748-6.6923c-11.518-0.06-34.132-7.1-41.281-14.71" />
      <path
         id="path228"
         fill-opacity=".46781"
         fill-rule="evenodd"
         d="m139.75 599.28 0.0775 6.0609c5.8016-0.59678 28.85-3.0391 42.335-19.509l0.0775-8.9651c-8.588 12.093-29.733 21.185-40.966 21.403" />
      <ellipse
         id="ellipse230"
         fill="url(#linearGradient4068-8)"
         cx="76.071"
         cy="579.86"
         ry="32.5"
         stroke="#000"
         transform="matrix(.91596 0 0 .87727 45.323 59.805)"
         rx="69.643" />
      <path
         id="path232"
         fill="url(#linearGradient4070-6)"
         fill-rule="evenodd"
         d="m145.46 576.58c9.5964-9.5964 16.162-15.152 7.0711-23.739-9.0914-8.5863-29.294-12.627-48.992-11.112-19.698 1.5152-36.871 7.5761-42.931 16.668-6.0609 9.0914-4.5457 16.162 1.0102 20.203 5.5558 4.0406 13.132 4.5457 13.132 4.5457" />
      <path
         id="path234"
         fill="url(#linearGradient4130)"
         stroke-width="1px"
         stroke="#000"
         fill-rule="evenodd"
         d="m59.094 576.33c4.6922 4.0337 10.043 7.9942 20.708 11.364l89.904-24.749c-2.9686-6.3023-9.4094-10.868-20.456-13.132l-31.82-2.7779-30.81 6.3134 34.85 4.5457-62.377 18.435" />
    </g>
    <g
       id="g236"
       transform="matrix(.86211 0 0 .86211 189.3 -82.625)">
      <g
         id="g238"
         stroke="#000">
        <ellipse
           id="ellipse240"
           fill="url(#linearGradient4064-1)"
           cx="76.071"
           cy="579.86"
           ry="32.5"
           transform="matrix(1.0002 0 0 .93458 39.52 34.954)"
           rx="69.643" />
        <ellipse
           id="ellipse242"
           fill="url(#linearGradient4066-6)"
           cx="76.071"
           cy="579.86"
           ry="32.5"
           transform="translate(38.929 -11.071)"
           rx="69.643" />
        <path
           id="path244"
           fill="none"
           stroke-width="1px"
           d="m45.357 568.79 0.60968 9.0945 0.46175 3.0484-0.12627-6.5944" />
        <path
           id="path246"
           fill="none"
           stroke-width="1px"
           d="m184.61 567.49 0.50507 9.2176-0.50507 4.0406-0.37881-7.955h-0.12627" />
      </g>
      <path
         id="path248"
         fill-opacity=".46781"
         fill-rule="evenodd"
         d="m54.296 584.66 0.07748 6.8185c6.9655 7.3513 30.728 12.876 41.514 15.089l0.07748-6.6923c-11.518-0.06-34.132-7.1-41.281-14.71" />
      <path
         id="path250"
         fill-opacity=".46781"
         fill-rule="evenodd"
         d="m139.75 599.28 0.0775 6.0609c5.8016-0.59678 28.85-3.0391 42.335-19.509l0.0775-8.9651c-8.588 12.093-29.733 21.185-40.966 21.403" />
      <ellipse
         id="ellipse252"
         fill="url(#linearGradient4068-8)"
         cx="76.071"
         cy="579.86"
         ry="32.5"
         stroke="#000"
         transform="matrix(.91596 0 0 .87727 45.323 59.805)"
         rx="69.643" />
      <path
         id="path254"
         fill="url(#linearGradient4070-6)"
         fill-rule="evenodd"
         d="m145.46 576.58c9.5964-9.5964 16.162-15.152 7.0711-23.739-9.0914-8.5863-29.294-12.627-48.992-11.112-19.698 1.5152-36.871 7.5761-42.931 16.668-6.0609 9.0914-4.5457 16.162 1.0102 20.203 5.5558 4.0406 13.132 4.5457 13.132 4.5457" />
      <path
         id="path256"
         fill="url(#linearGradient4130)"
         stroke-width="1px"
         stroke="#000"
         fill-rule="evenodd"
         d="m59.094 576.33c4.6922 4.0337 10.043 7.9942 20.708 11.364l89.904-24.749c-2.9686-6.3023-9.4094-10.868-20.456-13.132l-31.82-2.7779-30.81 6.3134 34.85 4.5457-62.377 18.435" />
    </g>
    <g
       id="g258"
       transform="matrix(.86211 0 0 .86211 203.3 -90.625)">
      <g
         id="g260"
         stroke="#000">
        <ellipse
           id="ellipse262"
           fill="url(#linearGradient4064-1)"
           cx="76.071"
           cy="579.86"
           ry="32.5"
           transform="matrix(1.0002 0 0 .93458 39.52 34.954)"
           rx="69.643" />
        <ellipse
           id="ellipse264"
           fill="url(#linearGradient4066-6)"
           cx="76.071"
           cy="579.86"
           ry="32.5"
           transform="translate(38.929 -11.071)"
           rx="69.643" />
        <path
           id="path266"
           fill="none"
           stroke-width="1px"
           d="m45.357 568.79 0.60968 9.0945 0.46175 3.0484-0.12627-6.5944" />
        <path
           id="path268"
           fill="none"
           stroke-width="1px"
           d="m184.61 567.49 0.50507 9.2176-0.50507 4.0406-0.37881-7.955h-0.12627" />
      </g>
      <path
         id="path270"
         fill-opacity=".46781"
         fill-rule="evenodd"
         d="m54.296 584.66 0.07748 6.8185c6.9655 7.3513 30.728 12.876 41.514 15.089l0.07748-6.6923c-11.518-0.06-34.132-7.1-41.281-14.71" />
      <path
         id="path272"
         fill-opacity=".46781"
         fill-rule="evenodd"
         d="m139.75 599.28 0.0775 6.0609c5.8016-0.59678 28.85-3.0391 42.335-19.509l0.0775-8.9651c-8.588 12.093-29.733 21.185-40.966 21.403" />
      <ellipse
         id="ellipse274"
         fill="url(#linearGradient4068-8)"
         cx="76.071"
         cy="579.86"
         ry="32.5"
         stroke="#000"
         transform="matrix(.91596 0 0 .87727 45.323 59.805)"
         rx="69.643" />
      <path
         id="path276"
         fill="url(#linearGradient4070-6)"
         fill-rule="evenodd"
         d="m145.46 576.58c9.5964-9.5964 16.162-15.152 7.0711-23.739-9.0914-8.5863-29.294-12.627-48.992-11.112-19.698 1.5152-36.871 7.5761-42.931 16.668-6.0609 9.0914-4.5457 16.162 1.0102 20.203 5.5558 4.0406 13.132 4.5457 13.132 4.5457" />
      <path
         id="path278"
         fill="url(#linearGradient4130)"
         stroke-width="1px"
         stroke="#000"
         fill-rule="evenodd"
         d="m59.094 576.33c4.6922 4.0337 10.043 7.9942 20.708 11.364l89.904-24.749c-2.9686-6.3023-9.4094-10.868-20.456-13.132l-31.82-2.7779-30.81 6.3134 34.85 4.5457-62.377 18.435" />
    </g>
    <g
       id="g280"
       transform="matrix(.86211 0 0 .86211 191.3 -120.63)">
      <g
         id="g282"
         stroke="#000">
        <ellipse
           id="ellipse284"
           fill="url(#linearGradient4064-1)"
           cx="76.071"
           cy="579.86"
           ry="32.5"
           transform="matrix(1.0002 0 0 .93458 39.52 34.954)"
           rx="69.643" />
        <ellipse
           id="ellipse286"
           fill="url(#linearGradient4066-6)"
           cx="76.071"
           cy="579.86"
           ry="32.5"
           transform="translate(38.929 -11.071)"
           rx="69.643" />
        <path
           id="path288"
           fill="none"
           stroke-width="1px"
           d="m45.357 568.79 0.60968 9.0945 0.46175 3.0484-0.12627-6.5944" />
        <path
           id="path290"
           fill="none"
           stroke-width="1px"
           d="m184.61 567.49 0.50507 9.2176-0.50507 4.0406-0.37881-7.955h-0.12627" />
      </g>
      <path
         id="path292"
         fill-opacity=".46781"
         fill-rule="evenodd"
         d="m54.296 584.66 0.07748 6.8185c6.9655 7.3513 30.728 12.876 41.514 15.089l0.07748-6.6923c-11.518-0.06-34.132-7.1-41.281-14.71" />
      <path
         id="path294"
         fill-opacity=".46781"
         fill-rule="evenodd"
         d="m139.75 599.28 0.0775 6.0609c5.8016-0.59678 28.85-3.0391 42.335-19.509l0.0775-8.9651c-8.588 12.093-29.733 21.185-40.966 21.403" />
      <ellipse
         id="ellipse296"
         fill="url(#linearGradient4068-8)"
         cx="76.071"
         cy="579.86"
         ry="32.5"
         stroke="#000"
         transform="matrix(.91596 0 0 .87727 45.323 59.805)"
         rx="69.643" />
      <path
         id="path298"
         fill="url(#linearGradient4070-6)"
         fill-rule="evenodd"
         d="m145.46 576.58c9.5964-9.5964 16.162-15.152 7.0711-23.739-9.0914-8.5863-29.294-12.627-48.992-11.112-19.698 1.5152-36.871 7.5761-42.931 16.668-6.0609 9.0914-4.5457 16.162 1.0102 20.203 5.5558 4.0406 13.132 4.5457 13.132 4.5457" />
      <path
         id="path300"
         fill="url(#linearGradient4130)"
         stroke-width="1px"
         stroke="#000"
         fill-rule="evenodd"
         d="m59.094 576.33c4.6922 4.0337 10.043 7.9942 20.708 11.364l89.904-24.749c-2.9686-6.3023-9.4094-10.868-20.456-13.132l-31.82-2.7779-30.81 6.3134 34.85 4.5457-62.377 18.435" />
    </g>
    <g
       id="g302"
       fill-rule="evenodd">
      <path
         id="path304"
         fill="#faa"
         d="m607.02 399.46s0.1995 24.737-13.965 32.119c-10.12 5.2737-31.52-5.7854-31.52-5.7854l45.485-26.333z" />
      <path
         id="path306"
         fill="#faa"
         d="m374.85 428s-0.1995 24.737 13.965 32.119c10.12 5.2737 31.52-5.7854 31.52-5.7854l-45.485-26.333z" />
      <path
         id="path308"
         fill="#ffd5d5"
         d="m498.71 185.35c-22.168 0.0104-44.492 4.1232-65.171 11.746-58.664 21.626-90.442 69.898-98.189 101.01-29.112 116.92 82.775 156.61 91.128 163.91 8.2111 7.1796 10.584 28.743 36.393 27.933 25.821-0.80969 29.872-20.297 41.19-25.402 10.846-4.8928 30.482-1.7558 87.464-45.697 56.708-43.73 58.295-138.48 19.762-184.52-14.508-17.335-30.649-28.855-50.338-36.835-2.2466-0.50118-5.4274-0.68074-7.0911-0.74712-0.61181-1.014-1.3317-1.9208-2.4569-2.9859-16.81-5.7217-34.697-8.424-52.692-8.4156z" />
      <path
         id="path310"
         fill="#fff"
         d="m350.46 293.83c1.1299-3.4292 5.715-13.152 10.573-8.7778 2.2097 2.7043-4.8876 14.862-7.8801 15.561-2.9924 0.69824-3.1919-5.9849-2.6932-6.7829z" />
    </g>
    <g
       id="g312"
       fill="#faa"
       fill-rule="evenodd">
      <path
         id="path314"
         d="m502.38 352.27c24.129 2.605 73.354-28.777 47.962-91.41s-104.03-49.042-115.11-12.978c-2.0963 6.8226 32.34 14.011 46.834 41.755 14.493 27.744 8.5406 61.362 20.313 62.633z" />
      <path
         id="path316"
         d="m407.12 225.5c13.71-4.7913 40.704-21.021 30.323-29.725-15.566 5.33-40.162-39.155-85.783-9.7753-26.198 16.872 8.6781 64.138-0.0998 76.507 12.188-20.327 19.87-24.569 55.56-37.006z" />
      <path
         id="path318"
         d="m336.49 328.01c-6.7414 8.9886-22.01 12.977-22.852 32.163-0.85534 19.467 15.441 54.429 39.216 61.222 23.699 6.7711 26.238-0.84639 38.37-0.28213 11.85 0.55117 12.696-47.116-8.4639-69.404-21.019-22.14-36.395-25.674-46.269-23.699z" />
    </g>
    <g
       id="g320">
      <ellipse
         id="ellipse322"
         fill="#e78d8d"
         cx="247.07"
         cy="437.02"
         ry="67.828"
         transform="matrix(.86098 0 0 .96311 107.62 -13.865)"
         rx="62.329"
         clip-path="url(#clipPath4038)" />
      <path
         id="path324"
         fill="#fff"
         transform="matrix(.71055 0 0 .71055 155.36 112.27)"
         fill-rule="evenodd"
         d="m338.74 271.37c6.5979 0.98267 11.581 6.8787 5.4047 19.373l-10.318 0.84229s-4.6326-6.1768-4.2114-11.652c0.42114-5.4749 7.0191-8.7037 9.1248-8.5633z" />
      <path
         id="path326"
         fill="#212901"
         transform="matrix(.71055 0 0 .71055 155.36 112.27)"
         fill-rule="evenodd"
         d="m338.25 263.84c-9.6457 1.6469-14.583 15.182-13.406 22.125 0 0 5.0848-21.907 18.094-15.438 12.84 6.3859-0.96876 28.219-0.96875 28.219 8.4923-2.9538 15.286-23.115 6.625-31.812-1.6728-1.6797-6.0361-3.7646-10.344-3.0938z" />
    </g>
    <g
       id="g328"
       fill-rule="evenodd">
      <path
         id="path330"
         d="m397.25 310.38c3.6907 1.8952 4.4886 6.5834 1.596 9.9748-2.8511 3.3427-6.2841 4.9874-8.5783 3.6907-2.3702-1.3397-3.7904-6.4836-1.995-10.274 1.757-3.7092 5.3653-5.2462 8.9773-3.3914z" />
      <path
         id="path332"
         d="m358.78 278.21c-4.8747 3.9786-8.5119 11.343-11.213 16.853 1.8338-1.4106 6.6645-8.9616 9.1705-12.412 2.431-3.3475 7.8585-2.3943 5.5734 5.64-1.4212 4.9968-7.0572 9.6068-8.3267 13.345-0.00001 0 7.6946-7.2008 9.8811-13.478 0.67759-1.9454 0.74984-3.914 0.42189-5.5956-0.91874-6.9031-3.9317-5.2744-5.5068-4.3521z" />
      <path
         id="path334"
         d="m356.66 290.9c2.0222 2.1134 1.2952 4.4275-0.89934 7.4337-2.0831 2.8536-4.4072 5.5368-5.9876 4.265s-2.038-3.5829-0.48317-8.1483c1.3412-3.9379 5.3104-5.7031 7.3701-3.5504z" />
    </g>
    <g
       id="g336"
       fill-rule="evenodd">
      <path
         id="path338"
         fill="url(#radialGradient3975)"
         transform="matrix(.71055 0 0 .71055 -29.384 112.27)"
         clip-path="url(#clipPath3671)"
         d="m648.58 197.53s53.174-24.134 87.598 5.6153c45.484 39.307 3.9307 142.07 3.9307 142.07l-91.53-147.69z"
         opacity=".9" />
      <path
         id="path340"
         fill="url(#radialGradient3977)"
         transform="matrix(.71055 0 0 .71055 254.84 112.27)"
         clip-path="url(#clipPath3903)"
         d="m213.76 163.84c-27.515-7.2998-62.329-54.468-82.544-35.938-14.924 13.681 16.284 76.368 7.8614 83.667-8.4229 7.2998 88.216-43.997 74.683-47.73z"
         opacity=".9" />
      <path
         id="path342"
         fill="url(#radialGradient4823)"
         d="m320.55 361.02c-2.5462 2.3683-1.1455 20.87 1.2526 28.205 2.3981 7.3354 7.3867 13.617 9.0321 12.42 1.5517-1.1285 1.9636-10.684 0.29388-18.059-1.6928-7.4764-2.1774-20.328-4.5088-21.169-2.2831-0.8235-3.5927-3.7015-6.0697-1.3976zm18.623 14.796c-2.6193 1.7826-3.2379 14.504-2.4046 22.004 1.0728 8.3165 7.3778 19.895 13.114 21.31 5.736 1.4153 7.0519-0.41928 5.7824-8.7421-1.2696-8.3228-4.6512-16.646-5.2155-22.006-0.56426-5.3605-0.16054-7.6333-3.6729-10.151-3.5124-2.5181-4.9838-4.1964-7.6031-2.4138z"
         opacity=".95" />
      <path
         id="path344"
         fill="#faa"
         d="m524.73 189.39c-31.986 0.0977-63.776 12.124-79.16 21.627 0.71461 2.542 12.218 5.9061 15.41 5.7066 32.552-10.123 62.275-22.661 92.949-19.94-0.66699-1.6489-2.702-3.3454-5.3513-4.9738-7.7886-1.7019-15.828-2.4448-23.848-2.4203z" />
      <path
         id="path346"
         fill="#2b0000"
         d="m531.51 195.87c-26.641 0.22077-51.552 7.8759-75.873 19.984 2.2423 0.57819 4.2717 0.93346 5.3513 0.86598 29.365-9.1318 56.42-20.23 83.956-20.317-4.5278-0.387-9.0072-0.5696-13.434-0.53292z"
         opacity=".75" />
    </g>
    <g
       id="g348"
       transform="translate(-262.72 153.07)">
      <ellipse
         id="ellipse350"
         fill="url(#radialGradient4036)"
         cx="179.05"
         ry="21.213"
         transform="matrix(1.1375 0 0 1.3779 673.76 -371.44)"
         cy="512.94"
         rx="58.841" />
      <g
         id="g352"
         transform="matrix(1.6774 0 0 1.6774 490.25 -475.94)">
        <g
           id="g354"
           stroke="#000">
          <ellipse
             id="ellipse356"
             fill="url(#linearGradient4064-1)"
             cx="76.071"
             cy="579.86"
             ry="32.5"
             transform="matrix(.51408 0 0 .48033 189.85 199.16)"
             rx="69.643" />
          <ellipse
             id="ellipse358"
             fill="url(#linearGradient4066-6)"
             cx="76.071"
             cy="579.86"
             ry="32.5"
             transform="matrix(.51396 0 0 .51396 189.55 175.51)"
             rx="69.643" />
          <path
             id="path360"
             fill="none"
             stroke-width=".51396px"
             d="m192.85 473.53 0.31335 4.6742 0.23732 1.5668-0.0649-3.3893" />
          <path
             id="path362"
             fill="none"
             stroke-width=".51396px"
             d="m264.42 472.86 0.25959 4.7375-0.25959 2.0767-0.19469-4.0885h-0.0649" />
        </g>
        <path
           id="path364"
           fill-rule="evenodd"
           fill-opacity=".46781"
           d="m197.44 481.69 0.0398 3.5044c3.58 3.7783 15.793 6.6179 21.336 7.7552l0.0398-3.4395c-5.9202-0.028-17.543-3.6457-21.217-7.5605" />
        <path
           id="path366"
           fill-rule="evenodd"
           fill-opacity=".46781"
           d="m241.36 489.2 0.0398 3.115c2.9818-0.30672 14.828-1.562 21.758-10.027l0.0398-4.6077c-4.4138 6.2155-15.281 10.888-21.055 11" />
        <ellipse
           id="ellipse368"
           fill="url(#linearGradient4068-8)"
           cx="76.071"
           cy="579.86"
           ry="32.5"
           stroke="url(#linearGradient4044)"
           transform="matrix(.47076 0 0 .45088 192.83 211.93)"
           rx="69.643" />
        <path
           id="path370"
           d="m244.3 477.54c4.9322-4.9322 8.3068-7.7876 3.6342-12.201-4.6726-4.413-15.056-6.4897-25.18-5.7109-10.124 0.77877-18.95 3.8938-22.065 8.5664-3.1151 4.6726-2.3363 8.3068 0.51917 10.384 2.8555 2.0767 6.7493 2.3363 6.7493 2.3363"
           fill="url(#linearGradient4046-5)"
           fill-rule="evenodd" />
        <path
           id="path372"
           fill="url(#linearGradient4048-6)"
           stroke-width=".51396px"
           stroke="url(#linearGradient4050)"
           fill-rule="evenodd"
           d="m199.91 477.41c2.4116 2.0732 5.1618 4.1087 10.643 5.8407l46.207-12.72c-1.5257-3.2391-4.8361-5.5859-10.513-6.7493l-16.354-1.4277-15.835 3.2448 17.912 2.3363-32.059 9.475" />
      </g>
    </g>
    <g
       id="g374"
       transform="translate(-328.72 173.07)">
      <ellipse
         id="ellipse376"
         fill="url(#radialGradient4036)"
         cx="179.05"
         ry="21.213"
         transform="matrix(1.1375 0 0 1.3779 673.76 -371.44)"
         cy="512.94"
         rx="58.841" />
      <g
         id="g378"
         transform="matrix(1.6774 0 0 1.6774 490.25 -475.94)">
        <g
           id="g380"
           stroke="#000">
          <ellipse
             id="ellipse382"
             fill="url(#linearGradient4064-1)"
             cx="76.071"
             cy="579.86"
             ry="32.5"
             transform="matrix(.51408 0 0 .48033 189.85 199.16)"
             rx="69.643" />
          <ellipse
             id="ellipse384"
             fill="url(#linearGradient4066-6)"
             cx="76.071"
             cy="579.86"
             ry="32.5"
             transform="matrix(.51396 0 0 .51396 189.55 175.51)"
             rx="69.643" />
          <path
             id="path386"
             fill="none"
             stroke-width=".51396px"
             d="m192.85 473.53 0.31335 4.6742 0.23732 1.5668-0.0649-3.3893" />
          <path
             id="path388"
             fill="none"
             stroke-width=".51396px"
             d="m264.42 472.86 0.25959 4.7375-0.25959 2.0767-0.19469-4.0885h-0.0649" />
        </g>
        <path
           id="path390"
           fill-rule="evenodd"
           fill-opacity=".46781"
           d="m197.44 481.69 0.0398 3.5044c3.58 3.7783 15.793 6.6179 21.336 7.7552l0.0398-3.4395c-5.9202-0.028-17.543-3.6457-21.217-7.5605" />
        <path
           id="path392"
           fill-rule="evenodd"
           fill-opacity=".46781"
           d="m241.36 489.2 0.0398 3.115c2.9818-0.30672 14.828-1.562 21.758-10.027l0.0398-4.6077c-4.4138 6.2155-15.281 10.888-21.055 11" />
        <ellipse
           id="ellipse394"
           fill="url(#linearGradient4068-8)"
           cx="76.071"
           cy="579.86"
           ry="32.5"
           stroke="url(#linearGradient4044)"
           transform="matrix(.47076 0 0 .45088 192.83 211.93)"
           rx="69.643" />
        <path
           id="path396"
           d="m244.3 477.54c4.9322-4.9322 8.3068-7.7876 3.6342-12.201-4.6726-4.413-15.056-6.4897-25.18-5.7109-10.124 0.77877-18.95 3.8938-22.065 8.5664-3.1151 4.6726-2.3363 8.3068 0.51917 10.384 2.8555 2.0767 6.7493 2.3363 6.7493 2.3363"
           fill="url(#linearGradient4046-5)"
           fill-rule="evenodd" />
        <path
           id="path398"
           fill="url(#linearGradient4048-6)"
           stroke-width=".51396px"
           stroke="url(#linearGradient4050)"
           fill-rule="evenodd"
           d="m199.91 477.41c2.4116 2.0732 5.1618 4.1087 10.643 5.8407l46.207-12.72c-1.5257-3.2391-4.8361-5.5859-10.513-6.7493l-16.354-1.4277-15.835 3.2448 17.912 2.3363-32.059 9.475" />
      </g>
    </g>
  </g>
</svg>
